<?xml version="1.0" encoding="UTF-8" standalone="no"?>
<!-- Created with Inkscape (http://www.inkscape.org/) -->

<svg
   xmlns:dc="http://purl.org/dc/elements/1.1/"
   xmlns:cc="http://creativecommons.org/ns#"
   xmlns:rdf="http://www.w3.org/1999/02/22-rdf-syntax-ns#"
   xmlns:svg="http://www.w3.org/2000/svg"
   xmlns="http://www.w3.org/2000/svg"
   xmlns:sodipodi="http://sodipodi.sourceforge.net/DTD/sodipodi-0.dtd"
   xmlns:inkscape="http://www.inkscape.org/namespaces/inkscape"
   width="64px"
   height="64px"
   id="svg2985"
   version="1.1"
   inkscape:version="0.48.4 r9939"
   sodipodi:docname="blood.svg"
   inkscape:export-filename="/home/kuba/Documents/INFORMATYKA 2 ROK/KCK/CW/tank/Images/blood.png"
   inkscape:export-xdpi="178.88181"
   inkscape:export-ydpi="178.88181">
  <defs
     id="defs2987">
    <inkscape:path-effect
       effect="spiro"
       id="path-effect3016"
       is_visible="true" />
    <inkscape:path-effect
       effect="spiro"
       id="path-effect5052"
       is_visible="true" />
    <inkscape:path-effect
       effect="spiro"
       id="path-effect5046"
       is_visible="true" />
    <inkscape:path-effect
       effect="spiro"
       id="path-effect5052-8"
       is_visible="true" />
    <inkscape:path-effect
       effect="spiro"
       id="path-effect5046-7"
       is_visible="true" />
  </defs>
  <sodipodi:namedview
     id="base"
     pagecolor="#ffffff"
     bordercolor="#666666"
     borderopacity="1.0"
     inkscape:pageopacity="0.0"
     inkscape:pageshadow="2"
     inkscape:zoom="5.8225824"
     inkscape:cx="10.727012"
     inkscape:cy="38.116287"
     inkscape:current-layer="layer1"
     showgrid="true"
     inkscape:document-units="px"
     inkscape:grid-bbox="true"
     inkscape:window-width="1366"
     inkscape:window-height="713"
     inkscape:window-x="0"
     inkscape:window-y="0"
     inkscape:window-maximized="1" />
  <metadata
     id="metadata2990">
    <rdf:RDF>
      <cc:Work
         rdf:about="">
        <dc:format>image/svg+xml</dc:format>
        <dc:type
           rdf:resource="http://purl.org/dc/dcmitype/StillImage" />
        <dc:title></dc:title>
      </cc:Work>
    </rdf:RDF>
  </metadata>
  <g
     id="layer1"
     inkscape:label="Layer 1"
     inkscape:groupmode="layer">
    <path
       style="fill:#ff0000;stroke:#000000;stroke-width:1.20199549px;stroke-linecap:butt;stroke-linejoin:miter;stroke-opacity:1"
       d="m 17.941059,29.557096 c -1.669389,-0.842789 -3.110549,-2.132469 -4.132802,-3.698403 -1.022253,-1.565934 -1.623046,-3.404212 -1.722888,-5.271612 -0.09984,-1.8674 0.301516,-3.759258 1.15097,-5.425265 0.849455,-1.666007 2.144884,-3.102001 3.714892,-4.117987 0.118887,-0.07694 0.240373,-0.152347 0.341033,-0.251949 0.10066,-0.0996 0.180229,-0.227514 0.193505,-0.3685 0.0066,-0.07049 -0.0038,-0.143057 -0.03388,-0.207158 -0.03007,-0.0641 -0.08022,-0.1193 -0.143124,-0.151798 -0.0629,-0.0325 -0.13848,-0.0413 -0.206097,-0.0203 -0.06762,0.02101 -0.125914,0.07258 -0.151438,0.13862 -0.01302,0.03368 -0.01762,0.07012 -0.01811,0.106232 -4.91e-4,0.03611 0.0029,0.07215 0.0065,0.108081 0.0072,0.07187 0.01158,0.144003 0.01158,0.216228 l 0,2.367976 c 0,0.8179 -0.04002,1.639433 0.05546,2.451741 0.04774,0.406153 0.138233,0.811452 0.317322,1.179103 0.17909,0.367651 0.453906,0.697895 0.815014,0.889836 0.233603,0.124168 0.497943,0.187376 0.762441,0.192709 0.264499,0.0053 0.528999,-0.04644 0.77593,-0.141378 0.49386,-0.189877 0.909756,-0.547573 1.239513,-0.96135 0.659514,-0.827555 0.992716,-1.867538 1.57736,-2.749579 0.654161,-0.98692 1.611381,-1.758657 2.177621,-2.798518 0.454055,-0.833841 0.629593,-1.7921328 1.03904,-2.6487597 0.204724,-0.4283135 0.471809,-0.833992 0.832303,-1.1428735 0.360495,-0.3088814 0.821385,-0.5153306 1.296108,-0.5137762 0.510162,0.00167 1.005085,0.2470066 1.352522,0.6205768 0.347438,0.3735703 0.553045,0.8662623 0.624785,1.3713573 0.07174,0.5050951 0.01503,1.0226114 -0.114505,1.5160563 -0.129535,0.493446 -0.330539,0.965235 -0.549801,1.425878 -0.438523,0.921286 -0.959077,1.823766 -1.150285,2.826019 -0.0956,0.501126 -0.104973,1.024066 0.0236,1.517763 0.128572,0.493697 0.401265,0.956817 0.803515,1.270605 0.296697,0.231448 0.655467,0.376449 1.025055,0.447173 0.369588,0.07072 0.750334,0.06922 1.124274,0.02719 0.747878,-0.08406 1.467846,-0.327246 2.205915,-0.474365 1.418605,-0.282769 2.88683,-0.207766 4.313938,-0.443903 0.713554,-0.118069 1.420284,-0.316334 2.055767,-0.661676 0.635483,-0.345341 1.198534,-0.844951 1.54892,-1.477667 0.07659,-0.138313 0.14283,-0.282361 0.197966,-0.430541 0.190609,-0.153313 0.388906,-0.297066 0.593896,-0.430541 1.447196,-0.942307 3.243791,-1.34856 4.949142,-1.076353 0.331989,0.05299 0.660738,0.13074 0.995961,0.156245 0.335223,0.02551 0.683706,-0.0045 0.983695,-0.156245 0.195894,-0.0991 0.363409,-0.246003 0.5194,-0.400476 0.155992,-0.154472 0.303155,-0.318424 0.470427,-0.460605 0.392461,-0.33359 0.88361,-0.535594 1.386652,-0.646307 0.503042,-0.110713 1.020858,-0.134608 1.535831,-0.145164 0.514973,-0.01056 1.031456,-0.0082 1.54307,-0.0679 0.511615,-0.05966 1.022229,-0.183782 1.473416,-0.432254 0.529479,-0.291588 0.959392,-0.7437316 1.498416,-1.0172729 0.269511,-0.1367706 0.568789,-0.2270937 0.870754,-0.2144418 0.150982,0.00633 0.301398,0.038606 0.439301,0.100399 0.137904,0.061793 0.263056,0.1534679 0.358979,0.2702348 0.176711,0.2151105 0.245161,0.5067919 0.21926,0.7839719 -0.0259,0.277179 -0.139839,0.540673 -0.292963,0.773165 -0.306247,0.464984 -0.761436,0.810529 -1.114091,1.241379 -0.334181,0.40828 -0.571612,0.887348 -0.892388,1.306242 -0.160388,0.209447 -0.34271,0.404489 -0.557903,0.55708 -0.215194,0.152591 -0.464985,0.261683 -0.72733,0.289383 -0.197008,0.0208 -0.395839,-0.0042 -0.593897,0 -0.583605,0.01247 -1.138776,0.280995 -1.592912,0.647753 -0.454135,0.366758 -0.820392,0.828778 -1.178608,1.289682 -1.171072,1.506778 -2.338689,3.082484 -3.959312,4.09014 -0.312187,0.194109 -0.638473,0.365146 -0.946783,0.565356 -0.30831,0.20021 -0.601328,0.432729 -0.821345,0.727232 -0.220016,0.294503 -0.363116,0.656938 -0.346518,1.024176 0.0083,0.183619 0.0567,0.366149 0.147019,0.526237 0.09031,0.160087 0.223065,0.297085 0.383903,0.386056 0.17751,0.09819 0.383338,0.135795 0.586163,0.13949 0.202825,0.0037 0.404667,-0.02494 0.605741,-0.05179 0.201073,-0.02686 0.403664,-0.05205 0.606245,-0.04144 0.202582,0.01061 0.407031,0.05896 0.577438,0.169019 0.246747,0.159365 0.396831,0.42799 0.593896,0.645812 0.269572,0.297966 0.633695,0.503095 1.020989,0.610131 0.387293,0.107035 0.797136,0.118977 1.195528,0.06666 0.796783,-0.104637 1.536249,-0.457358 2.265234,-0.795579 0.728984,-0.338221 1.481301,-0.671463 2.2826,-0.732553 0.40065,-0.03055 0.809839,0.0094 1.187102,0.147719 0.377263,0.138296 0.721434,0.378108 0.957002,0.703624 0.148732,0.205524 0.251651,0.439756 0.364859,0.666792 0.113207,0.227036 0.240787,0.452538 0.427003,0.624831 0.18102,0.167485 0.407354,0.275592 0.623109,0.395045 0.215756,0.119453 0.430783,0.258939 0.564685,0.466037 0.124953,0.193258 0.168041,0.434957 0.131058,0.662101 -0.03698,0.227144 -0.151331,0.438933 -0.311277,0.6044 -0.159946,0.165468 -0.364066,0.285551 -0.582456,0.358133 -0.218389,0.07258 -0.450855,0.09864 -0.680808,0.0895 -0.459907,-0.01829 -0.9039,-0.17358 -1.322985,-0.363887 -0.419084,-0.190308 -0.821069,-0.416466 -1.239128,-0.609014 -0.41806,-0.192549 -0.854853,-0.35153 -1.30924,-0.42488 -0.454388,-0.07335 -0.924173,-0.05879 -1.369624,0.05707 -0.445451,0.115853 -0.86183,0.33192 -1.228781,0.60976 -0.366952,0.277839 -0.683655,0.615465 -0.995213,0.954257 l -0.989827,1.076351 c -0.103229,0.112253 -0.206204,0.225644 -0.290984,0.352409 -0.08478,0.126766 -0.151035,0.267065 -0.184027,0.415956 -0.03299,0.148892 -0.03212,0.30549 0.0054,0.453306 0.03752,0.147815 0.11128,0.285808 0.210351,0.401747 0.198143,0.231879 0.488686,0.363991 0.780927,0.451304 0.292241,0.08731 0.599356,0.141791 0.864096,0.293255 0.363958,0.208229 0.602295,0.575184 0.846801,0.915833 0.122253,0.170324 0.250106,0.338062 0.402622,0.481919 0.152517,0.143858 0.331559,0.26381 0.532267,0.324412 0.190639,0.05756 0.393627,0.05983 0.592298,0.04618 0.198672,-0.01365 0.396386,-0.04273 0.595496,-0.04618 0.473105,-0.0082 0.942662,0.130475 1.356133,0.360558 0.413471,0.230082 0.77298,0.549139 1.08238,0.907145 0.618799,0.716011 1.037008,1.57855 1.520799,2.391896 0.280481,0.471543 0.585422,0.930323 0.819261,1.426651 0.233838,0.496328 0.395893,1.039164 0.368533,1.587136 -0.03857,0.772556 -0.465366,1.502351 -1.080334,1.971547 -0.614968,0.469196 -1.402219,0.68716 -2.175608,0.673016 -0.773389,-0.01414 -1.532778,-0.25063 -2.215576,-0.61411 -0.682798,-0.36348 -1.293041,-0.851217 -1.85321,-1.384641 -0.212044,-0.20192 -0.418214,-0.41157 -0.593898,-0.645812 -0.467232,-0.622967 -0.701309,-1.394921 -1.160489,-2.023846 -0.22959,-0.314463 -0.520315,-0.593712 -0.875406,-0.753425 -0.177546,-0.07986 -0.369804,-0.128776 -0.564377,-0.13519 -0.194572,-0.0064 -0.391381,0.03031 -0.567177,0.113944 -0.17353,0.08256 -0.324287,0.209561 -0.444173,0.359748 -0.119886,0.150188 -0.209567,0.323215 -0.273611,0.504399 -0.128087,0.362366 -0.15551,0.75268 -0.152166,1.137003 0.0067,0.768647 0.07809,1.535585 0.07809,2.304261 l 0,2.367976 c 0,0.27642 -0.0079,0.553812 -0.05392,0.826376 -0.04601,0.272564 -0.127865,0.537483 -0.199075,0.804573 -0.07121,0.26709 -0.130484,0.546986 -0.07797,0.818371 0.02626,0.135693 0.08212,0.267409 0.172948,0.371583 0.09083,0.104173 0.218464,0.179053 0.35598,0.192885 0.06586,0.0066 0.13221,-5.22e-4 0.198195,-0.0057 0.06598,-0.0052 0.133091,-0.0085 0.197738,0.0057 0.10608,0.02333 0.198822,0.09371 0.259596,0.183733 0.06077,0.09002 0.09111,0.198381 0.09779,0.30679 0.01335,0.216819 -0.06361,0.427574 -0.131662,0.63387 -0.06805,0.206295 -0.128777,0.426036 -0.08267,0.638315 0.02305,0.10614 0.07394,0.207797 0.153535,0.281706 0.07959,0.07391 0.189112,0.117865 0.297304,0.10829 0.08183,-0.0072 0.159987,-0.04462 0.220014,-0.100711 0.06003,-0.05609 0.10216,-0.13022 0.123902,-0.209445 0.04348,-0.158451 0.0052,-0.330973 -0.07355,-0.475193 -0.07873,-0.14422 -0.194954,-0.264147 -0.31509,-0.37624 -0.120136,-0.112093 -0.246218,-0.218915 -0.351211,-0.345303 -0.240294,-0.289261 -0.356177,-0.668198 -0.372296,-1.043901 -0.01612,-0.375704 0.06172,-0.750011 0.174331,-1.108804 0.458598,-1.461199 1.48521,-2.705183 1.861171,-4.189794 0.187981,-0.742305 0.199569,-1.552255 -0.111758,-2.251847 -0.155664,-0.349796 -0.391111,-0.666327 -0.693793,-0.900787 -0.302683,-0.23446 -0.673431,-0.384512 -1.05562,-0.407312 -0.376859,-0.02248 -0.757281,0.07906 -1.083394,0.269264 -0.326112,0.190207 -0.598557,0.466768 -0.801384,0.785185 -0.405653,0.636835 -0.527092,1.420423 -0.490811,2.174609 0.01244,0.258496 0.04221,0.516985 0.02841,0.775412 -0.0138,0.258426 -0.07478,0.521734 -0.226372,0.731481 -0.128757,0.178148 -0.313667,0.306166 -0.494867,0.43059 -0.1812,0.124424 -0.366131,0.252399 -0.494961,0.430493 -0.153497,0.212194 -0.213792,0.476902 -0.251707,0.736036 -0.03792,0.259134 -0.05768,0.523676 -0.144224,0.770857 -0.115819,0.330805 -0.343436,0.608962 -0.572827,0.873964 -0.229391,0.265001 -0.468485,0.529784 -0.614967,0.8482 -0.229006,0.497804 -0.207672,1.069476 -0.185982,1.617 0.02169,0.547524 0.03392,1.121365 -0.209949,1.612059 -0.178539,0.359243 -0.47842,0.640093 -0.755133,0.930542 -0.276714,0.29045 -0.544492,0.615087 -0.630627,1.006893 -0.06189,0.281518 -0.02448,0.573882 0,0.861081 0.09922,1.164014 -0.03484,2.387909 -0.642817,3.385472 -0.30399,0.498782 -0.724543,0.931183 -1.233544,1.217733 -0.509001,0.286551 -1.107655,0.422366 -1.687021,0.348017 -0.578667,-0.07426 -1.120509,-0.354392 -1.555422,-0.743262 -0.434914,-0.38887 -0.76744,-0.882637 -1.01813,-1.409443 -0.417808,-0.877993 -0.613382,-1.842703 -0.791863,-2.798517 -0.586129,-3.138879 -1.016889,-6.445016 0,-9.471903 0.120747,-0.359417 0.26234,-0.716845 0.302088,-1.093913 0.01987,-0.188534 0.01356,-0.381099 -0.03357,-0.564726 -0.04713,-0.183627 -0.136281,-0.358226 -0.268522,-0.494066 -0.148848,-0.152899 -0.349197,-0.252406 -0.559334,-0.289504 -0.210136,-0.0371 -0.429275,-0.01313 -0.630438,0.05805 -0.402327,0.142364 -0.721026,0.465719 -0.936306,0.834214 -0.430561,0.736991 -0.483177,1.637219 -0.843406,2.411023 -0.367129,0.788626 -1.027007,1.394645 -1.652159,1.999541 -0.625152,0.604897 -1.251007,1.261823 -1.515291,2.090599 -0.103386,0.324213 -0.147352,0.663838 -0.218383,0.99664 -0.07103,0.332802 -0.173093,0.667248 -0.375515,0.940795 -0.260941,0.352627 -0.661487,0.570173 -0.989828,0.861082 -0.435312,0.385684 -0.740014,0.898484 -0.975321,1.430348 -0.235307,0.531864 -0.407627,1.089194 -0.622492,1.629639 -0.214866,0.540445 -0.477286,1.071357 -0.865742,1.504197 -0.388455,0.43284 -0.916803,0.762254 -1.495757,0.817579 -0.345636,0.03303 -0.697069,-0.03106 -1.04012,0.02252 -0.171525,0.02679 -0.341166,0.08449 -0.47934,0.189595 -0.138175,0.105102 -0.242336,0.261234 -0.26223,0.433696 -0.01648,0.142872 0.0241,0.288757 0,0.430541 -0.01483,0.08725 -0.05435,0.169925 -0.111555,0.237446 -0.05721,0.06752 -0.131842,0.119866 -0.214163,0.15235 -0.164643,0.06497 -0.35682,0.04747 -0.513735,-0.03442 -0.156915,-0.08189 -0.278582,-0.224396 -0.347957,-0.38723 -0.06937,-0.162835 -0.08824,-0.344819 -0.06801,-0.520656 0.04047,-0.351672 0.230017,-0.668185 0.441408,-0.95213 0.211392,-0.283945 0.450582,-0.550396 0.616045,-0.863339 0.178413,-0.337436 0.264148,-0.716865 0.307461,-1.096099 0.04331,-0.379234 0.046,-0.761789 0.06856,-1.142822 0.02256,-0.381033 0.06576,-0.76432 0.186769,-1.12633 0.121009,-0.36201 0.325037,-0.704125 0.625007,-0.94016 0.135094,-0.1063 0.286796,-0.189251 0.428984,-0.285857 0.142189,-0.0966 0.277959,-0.210493 0.362879,-0.359955 0.07314,-0.128721 0.104528,-0.276694 0.125713,-0.423217 0.02118,-0.146523 0.03332,-0.29503 0.07225,-0.437866 0.05309,-0.194769 0.155348,-0.374366 0.285386,-0.528779 0.130038,-0.154413 0.28744,-0.284324 0.456369,-0.39485 0.33786,-0.221052 0.71915,-0.364567 1.087268,-0.530404 0.368119,-0.165837 0.733687,-0.361527 1.004261,-0.661197 0.135287,-0.149836 0.244747,-0.324791 0.307178,-0.51677 0.06243,-0.191978 0.07652,-0.401354 0.02699,-0.597057 -0.05806,-0.229374 -0.203675,-0.434211 -0.397243,-0.57028 -0.193567,-0.136069 -0.433042,-0.203559 -0.669521,-0.195769 -0.23648,0.0078 -0.468977,0.08973 -0.662364,0.226054 -0.193388,0.136324 -0.347666,0.325946 -0.448494,0.539995 -0.09612,0.204061 -0.143732,0.426861 -0.197966,0.645811 -0.293619,1.185368 -0.813771,2.331554 -1.62909,3.24071 -0.815319,0.909157 -1.942676,1.566218 -3.157882,1.686987 -0.607602,0.06039 -1.23027,-0.01354 -1.800429,-0.232051 -0.57016,-0.218508 -1.086195,-0.582956 -1.46855,-1.059015 -0.382355,-0.47606 -0.6281,-1.063802 -0.68018,-1.672173 -0.05208,-0.608371 0.09259,-1.234796 0.421576,-1.749188 0.24799,-0.387754 0.593545,-0.70624 0.973292,-0.966326 0.379746,-0.260087 0.794469,-0.464557 1.212684,-0.656777 0.836431,-0.38444 1.71684,-0.739224 2.367232,-1.390684 0.177023,-0.177314 0.334395,-0.374432 0.522524,-0.539917 0.188128,-0.165485 0.415548,-0.300755 0.66527,-0.321165 0.131626,-0.01076 0.264304,0.01073 0.395932,0 0.140403,-0.01145 0.277297,-0.0601 0.394839,-0.137744 0.117541,-0.07764 0.215663,-0.183935 0.285886,-0.306053 0.140445,-0.244236 0.164421,-0.548274 0.08201,-0.81769 -0.08241,-0.269416 -0.266329,-0.503174 -0.498202,-0.663209 -0.231872,-0.160035 -0.509503,-0.248317 -0.790268,-0.271716 -0.561529,-0.0468 -1.116117,0.159068 -1.607293,0.435204 -0.491175,0.276137 -0.939125,0.624084 -1.430354,0.900126 -0.432436,0.243003 -0.906373,0.431132 -1.401526,0.46072 -0.247576,0.01479 -0.498536,-0.01073 -0.734811,-0.08614 -0.236275,-0.07541 -0.457573,-0.201463 -0.635181,-0.374577 -0.209919,-0.204608 -0.357784,-0.472083 -0.593897,-0.645811 -0.137672,-0.101298 -0.300361,-0.166025 -0.468046,-0.19914 -0.167685,-0.03311 -0.34047,-0.03533 -0.510603,-0.01891 -0.340267,0.03283 -0.668471,0.138809 -1.001007,0.218053 -1.258358,0.29987 -2.632974,0.2025 -3.7750231,-0.405045 C 8.8438373,41.333969 8.3367727,40.906274 7.9564421,40.383115 7.5761115,39.859956 7.3245446,39.241051 7.2509156,38.598458 c -0.032741,-0.285743 -0.030702,-0.575113 0,-0.861082 0.05462,-0.50875 0.2013577,-1.009512 0.4488224,-1.457363 0.2474647,-0.447852 0.596959,-0.841715 1.0241594,-1.123336 0.4272004,-0.28162 0.9325722,-0.448499 1.4441936,-0.45585 0.511621,-0.0074 1.027475,0.14798 1.438069,0.453304 0.215933,0.160571 0.400418,0.359047 0.603474,0.53562 0.203057,0.176573 0.432922,0.334926 0.695972,0.391621 0.131526,0.02835 0.269788,0.03011 0.399919,-0.0041 0.130131,-0.03418 0.251696,-0.105353 0.338353,-0.208276 0.08666,-0.102924 0.136563,-0.238126 0.128594,-0.372435 -0.008,-0.134309 -0.07619,-0.265659 -0.186657,-0.342461 -0.111914,-0.0778 -0.256112,-0.09565 -0.391815,-0.0829 -0.135704,0.01275 -0.266997,0.0533 -0.400047,0.0829 -0.81294,0.180846 -1.688898,-0.06337 -2.355455,-0.562645 C 9.7719408,34.092208 9.3044644,33.358074 9.0326064,32.570883 8.834013,31.995837 8.7304565,31.382575 8.4387094,30.84872 8.1314487,30.286477 7.637575,29.852728 7.2509156,29.341826 6.7732126,28.710626 6.4619621,27.960822 6.3075669,27.184436 6.1531717,26.40805 6.1527626,25.605286 6.2610875,24.821144 6.320923,24.388007 6.4136614,23.958883 6.4449557,23.522754 6.4762499,23.086625 6.4428299,22.635589 6.2610875,22.237898 6.0507024,21.777531 5.6556359,21.41686 5.469225,20.946275 5.2959156,20.508764 5.3200725,20.019752 5.3775326,19.552686 5.4349928,19.08562 5.523231,18.615236 5.469225,18.147758 5.4249563,17.764566 5.2843724,17.394269 5.0732937,17.071405 4.8787783,16.773876 4.6276822,16.518549 4.395428,16.249443 4.1631739,15.980338 3.9448337,15.68886 3.8343394,15.350998 3.7790923,15.182067 3.7519683,15.002843 3.766218,14.825679 c 0.01425,-0.177164 0.070858,-0.352183 0.1725074,-0.497982 0.1016491,-0.145799 0.24937,-0.261058 0.419107,-0.313777 0.169737,-0.05272 0.3608333,-0.04025 0.5174956,0.0437 0.092629,0.04963 0.1716647,0.1225 0.2355973,0.205904 0.063932,0.0834 0.1132224,0.177268 0.1536939,0.274251 0.080943,0.193966 0.1272986,0.400754 0.2046058,0.596197 0.236969,0.59909 0.7404115,1.043308 1.1877938,1.506894 1.5181802,1.573168 2.5431621,3.638005 2.7715186,5.812305 0.035202,0.335173 0.054276,0.681441 0.1992443,0.985685 0.072484,0.152122 0.1770329,0.291269 0.3143359,0.388957 0.1373034,0.09769 0.3088434,0.151505 0.4762474,0.13225 0.175468,-0.02018 0.337086,-0.119977 0.447636,-0.257727 0.11055,-0.137749 0.172171,-0.310919 0.191339,-0.4865 0.03834,-0.351164 -0.08584,-0.698159 -0.219836,-1.025009 -0.133994,-0.326849 -0.282203,-0.658529 -0.295308,-1.011535 -0.0066,-0.176503 0.02228,-0.356333 0.100303,-0.514792 0.07802,-0.158459 0.20751,-0.294246 0.369762,-0.364035 0.181839,-0.07821 0.393235,-0.06914 0.580391,-0.0047 0.187157,0.06446 0.352625,0.180562 0.501117,0.311455 0.296984,0.261786 0.543888,0.592856 0.898149,0.769577 0.183401,0.09149 0.386692,0.136468 0.573088,0.221689 0.0932,0.04261 0.182555,0.09572 0.257055,0.166089 0.0745,0.07037 0.133748,0.158892 0.159686,0.258032 0.03683,0.140767 0.0049,0.289047 -0.02038,0.432342 -0.01263,0.07165 -0.02359,0.143959 -0.02327,0.21671 3.13e-4,0.07275 0.01229,0.146387 0.04366,0.212032 0.04007,0.08387 0.110263,0.150954 0.190259,0.198293 0.08,0.04734 0.169682,0.07612 0.260278,0.09692 0.181193,0.04159 0.372241,0.05375 0.53929,0.135331 0.121549,0.05936 0.224479,0.153594 0.302478,0.26411 0.078,0.110517 0.131735,0.236988 0.16683,0.367626 0.07019,0.261275 0.06666,0.535767 0.06868,0.806298 0.002,0.270532 0.0111,0.546667 0.104264,0.800658 0.04658,0.126995 0.114341,0.247184 0.206374,0.346319 0.09203,0.09913 0.209017,0.176637 0.339165,0.213506 0.104372,0.02957 0.214358,0.03272 0.320515,0.05504 0.05308,0.01116 0.105504,0.02728 0.153231,0.05305 0.04773,0.02577 0.09074,0.06161 0.12015,0.107179 0.0401,0.06213 0.05273,0.138837 0.04876,0.212674 -0.004,0.07384 -0.02344,0.145863 -0.04325,0.217103 -0.01981,0.07124 -0.04019,0.142912 -0.04607,0.216622 -0.0059,0.07371 0.0037,0.150573 0.04056,0.214685 0.03548,0.06175 0.09434,0.107935 0.159424,0.136851 0.06508,0.02892 0.136316,0.04161 0.207321,0.04707 0.142011,0.01093 0.287612,-0.0058 0.425119,0.03134 0.11724,0.03166 0.223435,0.102832 0.29727,0.199246 0.07383,0.09641 0.114871,0.217491 0.114871,0.338929 0,0.121439 -0.04104,0.242516 -0.114871,0.33893 -0.07383,0.09641 -0.18003,0.167591 -0.29727,0.199246 l 0.39593,1.076354"
       id="path3014"
       inkscape:path-effect="#path-effect3016"
       inkscape:original-d="m 17.941059,29.557096 c 0.246277,-6.610023 -0.989828,-11.907699 -0.989828,-18.513267 0,-0.287026 -0.263954,-0.861081 0,-0.861081 0.131977,0 0,0.287027 0,0.430541 0,0.789326 0,1.57865 0,2.367976 0,0.430305 0.995361,4.311427 1.187794,4.52068 1.329794,1.446038 4.08977,-3.370918 4.355244,-3.659598 0.79665,-0.866288 1.463562,-2.022037 2.177621,-2.798518 0.251408,-0.273381 1.965019,-5.612951 3.167451,-4.3054094 1.103099,1.1995244 0.137364,9.6212754 0.989829,10.5482554 0.441816,0.480438 3.660962,0 4.355244,0 0.736116,0 7.534627,-2.30487 7.918625,-2.583246 0.122773,-0.08901 0.131976,-0.287027 0.197966,-0.430541 0.197965,-0.143514 0.38109,-0.314836 0.593896,-0.430541 1.384926,-0.752994 3.458588,-0.26593 4.949142,-1.076353 0.531564,-0.289016 1.424467,0.241489 1.979656,0 0.181573,-0.07898 0.808254,-0.782104 0.989827,-0.861081 2.275762,-0.989878 3.275369,-1.291624 5.938969,-1.291624 0.501602,0 2.78773,-1.2739959 3.16745,-0.8610809 0.813417,0.8845189 -0.88396,2.6333199 -1.187794,2.7985159 -0.665654,0.36192 -1.762339,1.701122 -2.177621,2.152705 -0.09898,0.107633 -0.494915,-0.107632 -0.593897,0 -0.823586,0.895579 -1.786886,1.402084 -2.77152,1.937435 -1.770938,0.962871 -2.663761,2.681339 -3.959312,4.09014 -0.323742,0.352043 -1.815452,2.977075 -1.583724,3.229057 0.568145,0.61781 1.778883,-0.217304 2.375587,0.215271 0.232946,0.168872 0.343488,0.509663 0.593896,0.645812 1.295935,0.704608 8.225295,-0.742877 8.908455,0 0.295978,0.321851 0.525628,1.002118 0.791862,1.291623 0.252988,0.275104 0.924724,0.288953 1.187794,0.861082 1.025164,2.229555 -8.706652,1.717994 -8.908454,1.937436 -0.329943,0.358783 -0.659886,0.717567 -0.989827,1.076351 -0.896777,0.975165 1.022911,2.170694 1.385759,2.367977 0.966253,0.525359 1.29365,1.191463 1.78169,1.722164 0.197965,0.21527 0.989829,-0.21527 1.187794,0 1.263906,1.374389 2.601524,2.183121 3.959312,3.659599 0.273939,0.297884 1.69863,2.458297 1.187794,3.013787 -0.02853,0.03102 -7.082436,0.909282 -7.324728,0.645812 -0.215985,-0.234865 -0.254894,-0.461494 -0.593898,-0.645812 -1.44169,-0.783857 -3.167449,-3.286689 -3.167449,-2.798517 0,1.966835 -0.791863,2.504419 -0.791863,4.305411 0,0.789326 0,1.578651 0,2.367976 0,0.487973 -0.07454,2.717455 0.197965,3.013788 0.09332,0.101477 0.30261,-0.101478 0.395933,0 0.249286,0.271079 -0.113492,2.152704 0.593897,2.152704 0.480403,0 -0.181089,-1.039647 -0.395932,-1.506892 -0.27898,-0.606733 0.09188,-1.522335 -0.197965,-2.152705 -0.518369,-1.127364 0.546519,-7.155446 0,-7.74974 -0.387212,-0.421059 -2.028012,2.851098 -2.375589,3.229058 -0.130575,0.14199 -0.08909,1.270102 -0.197965,1.506893 -0.192616,0.418905 -0.794227,0.542035 -0.989828,0.861083 -0.199447,0.325323 -0.221822,1.128237 -0.395931,1.506893 -0.314628,0.684261 -0.94071,1.1848 -1.187794,1.722164 -0.373409,0.812102 0.202885,2.577896 -0.395931,3.229059 -0.253783,0.275967 -1.190164,1.512048 -1.38576,1.937435 -0.08242,0.179232 0.125572,0.724532 0,0.861081 -1.342858,1.460241 -2.284064,3.560076 -3.563382,4.951222 -0.756532,0.822665 -2.573552,-1.870678 -2.573552,-2.152705 0,-1.044102 -0.461232,-1.719916 -0.791863,-2.798517 -0.620597,-2.024534 0,-7.138073 0,-9.471903 0,-0.342799 0.200627,-1.93454 0,-2.152705 -0.861306,-0.936597 -2.969484,2.354836 -2.969484,3.013787 0,0.755059 -2.698096,3.579757 -3.16745,4.09014 -0.368975,0.401228 -0.327913,1.358963 -0.593898,1.937435 -0.164368,0.357473 -0.780477,0.405779 -0.989828,0.861082 -0.951648,2.06967 -2.788201,4.108283 -3.959312,5.381763 -0.395933,0.430542 -1.38576,0.215272 -1.78169,0.645812 -0.09333,0.101477 0.131976,0.430541 0,0.430541 -0.228679,0 -0.197966,-2.064919 -0.197966,-2.367975 0,-1.972544 0.478825,-2.763529 1.187793,-4.305411 0.178453,-0.388104 0.666864,-0.238037 0.791863,-0.645812 0.06531,-0.213066 0.04325,-0.692841 0.197965,-0.861083 0.335168,-0.364463 3.592497,-2.766854 3.16745,-3.229057 -0.124854,-0.135767 -1.995149,-0.09921 -2.177622,0 -0.424827,0.230982 -0.0091,0.235086 -0.197966,0.645811 -0.218752,0.47575 -7.725535,0.855781 -8.314555,0.21527 -0.90285,-0.98177 3.97445,-2.699111 4.553208,-3.013787 0.561082,-0.305063 0.916071,-0.565604 1.187794,-0.861082 0.09332,-0.101478 0.527909,0 0.395932,0 -1.338872,0 -2.736443,0.03814 -3.563382,-0.861082 -0.444346,-0.483189 -2.186862,0.317882 -2.771518,0 -0.371795,-0.202147 -0.266603,-0.467859 -0.593897,-0.645811 -0.527908,-0.287028 -1.451749,0.287027 -1.979656,0 -1.51798,-0.825337 -5.2110645,-2.652795 -5.9389694,-3.444329 -0.077134,-0.08388 0,-0.729714 0,-0.861082 0,-2.085978 2.7373598,-2.583245 4.3552444,-2.583245 0.659884,0 1.979655,-0.71757 1.979655,0 0,0.287026 -0.527907,0 -0.791862,0 -1.385388,0 -2.648035,-1.977933 -3.7613466,-2.583248 C 8.3800552,32.216087 8.6834353,31.380956 8.4387094,30.84872 8.136146,30.190696 7.6701162,29.797669 7.2509156,29.341826 7.1046532,29.182777 6.5721148,25.497575 6.2610875,24.821144 c -0.316745,-0.688866 0.316745,-1.894381 0,-2.583246 C 6.0192657,21.711976 5.802754,21.490301 5.469225,20.946275 c -0.4009033,-0.653922 0.3266697,-2.088068 0,-2.798517 -0.2402959,-0.522603 -0.3959313,-0.290011 -0.3959313,-1.076353 0,-0.251201 -0.6208531,-2.553933 -0.1979657,-3.013787 0.1087534,-0.118261 0.5372187,0.953087 0.593897,1.076352 0.1849716,0.402282 1.1877938,0.922037 1.1877938,1.506894 0,0.908184 2.7715186,4.742382 2.7715186,5.812305 0,0.184719 0.7391176,1.779518 0.9898276,1.506892 0.145137,-0.157821 0.187909,-3.218121 0.593896,-3.659598 0.622207,-0.676595 1.979657,0.699112 1.979657,1.076353 0,0.235294 0.842862,0.485997 0.989829,0.64581 0.131977,0.143514 -0.131978,0.71757 0,0.861084 0.230959,0.251148 0.758868,0.179392 0.989827,0.43054 0.37027,0.402636 0.864027,2.446449 1.187795,2.798517 0.201811,0.219454 0.385921,-0.23704 0.593896,0.21527 0.08241,0.179232 -0.125571,0.724534 0,0.861084 0.164972,0.179392 0.626892,0.03587 0.791864,0.21527 0.09878,0.107418 0,0.907792 0,1.076351 0.131976,0.358785 0.263953,0.71757 0.39593,1.076354 z"
       inkscape:connector-curvature="0" />
  </g>
</svg>
