<?xml version="1.0" encoding="UTF-8" standalone="no"?>
<!-- Created with Inkscape (http://www.inkscape.org/) -->

<svg
   xmlns:dc="http://purl.org/dc/elements/1.1/"
   xmlns:cc="http://creativecommons.org/ns#"
   xmlns:rdf="http://www.w3.org/1999/02/22-rdf-syntax-ns#"
   xmlns:svg="http://www.w3.org/2000/svg"
   xmlns="http://www.w3.org/2000/svg"
   xmlns:sodipodi="http://sodipodi.sourceforge.net/DTD/sodipodi-0.dtd"
   xmlns:inkscape="http://www.inkscape.org/namespaces/inkscape"
   width="64px"
   height="64px"
   id="svg2985"
   version="1.1"
   inkscape:version="0.48.4 r9939"
   sodipodi:docname="sheep.svg"
   inkscape:export-filename="/home/kuba/Documents/INFORMATYKA 2 ROK/KCK/CW/tank/Images/sheep.png"
   inkscape:export-xdpi="77.34375"
   inkscape:export-ydpi="77.34375">
  <defs
     id="defs2987">
    <inkscape:path-effect
       effect="spiro"
       id="path-effect4048"
       is_visible="true" />
    <inkscape:path-effect
       effect="spiro"
       id="path-effect4044"
       is_visible="true" />
    <inkscape:path-effect
       effect="spiro"
       id="path-effect3965"
       is_visible="true" />
    <inkscape:path-effect
       effect="spiro"
       id="path-effect3961"
       is_visible="true" />
    <inkscape:path-effect
       effect="spiro"
       id="path-effect3096"
       is_visible="true" />
    <inkscape:path-effect
       effect="spiro"
       id="path-effect3092"
       is_visible="true" />
    <inkscape:path-effect
       effect="spiro"
       id="path-effect3088"
       is_visible="true" />
    <inkscape:path-effect
       effect="spiro"
       id="path-effect3076"
       is_visible="true" />
    <inkscape:path-effect
       effect="spiro"
       id="path-effect3072"
       is_visible="true" />
    <inkscape:path-effect
       effect="spiro"
       id="path-effect3784"
       is_visible="true" />
    <inkscape:path-effect
       effect="spiro"
       id="path-effect3776"
       is_visible="true" />
    <inkscape:path-effect
       effect="spiro"
       id="path-effect3772"
       is_visible="true" />
    <inkscape:path-effect
       effect="spiro"
       id="path-effect3768"
       is_visible="true" />
    <inkscape:path-effect
       effect="spiro"
       id="path-effect3092-9"
       is_visible="true" />
    <inkscape:path-effect
       effect="spiro"
       id="path-effect3965-1"
       is_visible="true" />
  </defs>
  <sodipodi:namedview
     id="base"
     pagecolor="#ffffff"
     bordercolor="#666666"
     borderopacity="1.0"
     inkscape:pageopacity="0.0"
     inkscape:pageshadow="2"
     inkscape:zoom="3.8117475"
     inkscape:cx="27.881554"
     inkscape:cy="38.378004"
     inkscape:current-layer="layer1"
     showgrid="true"
     inkscape:document-units="px"
     inkscape:grid-bbox="true"
     inkscape:window-width="1225"
     inkscape:window-height="592"
     inkscape:window-x="21"
     inkscape:window-y="87"
     inkscape:window-maximized="0" />
  <metadata
     id="metadata2990">
    <rdf:RDF>
      <cc:Work
         rdf:about="">
        <dc:format>image/svg+xml</dc:format>
        <dc:type
           rdf:resource="http://purl.org/dc/dcmitype/StillImage" />
        <dc:title></dc:title>
      </cc:Work>
    </rdf:RDF>
  </metadata>
  <g
     id="layer1"
     inkscape:label="Layer 1"
     inkscape:groupmode="layer">
    <rect
       style="fill:#333333;stroke:#333333;stroke-width:1.01023769;stroke-linecap:butt;stroke-linejoin:miter;stroke-miterlimit:100;stroke-opacity:1;stroke-dasharray:none;stroke-dashoffset:0"
       id="rect3098"
       width="3.9644146"
       height="16.207893"
       x="18.937035"
       y="40.297474"
       ry="3.4242027"
       transform="matrix(0.98129431,0.19251357,-0.19251357,0.98129431,0,0)"
       inkscape:transform-center-x="1.2985507"
       inkscape:transform-center-y="3.1536232" />
    <rect
       style="fill:#333333;stroke:#333333;stroke-width:1.01023769;stroke-linecap:butt;stroke-linejoin:miter;stroke-miterlimit:100;stroke-opacity:1;stroke-dasharray:none;stroke-dashoffset:0"
       id="rect3098-0"
       width="3.9644146"
       height="16.207893"
       x="1.7361672"
       y="45.42083"
       ry="3.4242027"
       transform="matrix(0.97164521,-0.23644362,0.23644362,0.97164521,0,0)"
       inkscape:transform-center-x="-0.1425869"
       inkscape:transform-center-y="3.4075286" />
    <rect
       style="fill:#333333;stroke:#333333;stroke-width:1.01023769;stroke-linecap:butt;stroke-linejoin:miter;stroke-miterlimit:100;stroke-opacity:1;stroke-dasharray:none;stroke-dashoffset:0"
       id="rect3098-0-3"
       width="3.9644146"
       height="16.207893"
       x="22.118118"
       y="50.501171"
       ry="3.4242027"
       transform="matrix(0.97164521,-0.23644362,0.23644362,0.97164521,0,0)"
       inkscape:transform-center-x="-0.1425869"
       inkscape:transform-center-y="3.4075286" />
    <rect
       style="fill:#333333;stroke:#333333;stroke-width:1.01023769;stroke-linecap:butt;stroke-linejoin:miter;stroke-miterlimit:100;stroke-opacity:1;stroke-dasharray:none;stroke-dashoffset:0"
       id="rect3098-0-8"
       width="3.9644146"
       height="16.207893"
       x="41.962105"
       y="34.146996"
       ry="3.4242027"
       transform="matrix(0.9726222,0.23239202,-0.23239202,0.9726222,0,0)"
       inkscape:transform-center-x="-11.744869"
       inkscape:transform-center-y="2.5414937" />
    <path
       style="fill:#ffffff;stroke:#000000;stroke-width:1px;stroke-linecap:butt;stroke-linejoin:miter;stroke-opacity:1"
       d="m 3.3734866,37.866116 c -0.088823,-1.582063 -0.2640677,-3.15927 -0.524693,-4.722244 -0.050954,-0.305574 -0.1052791,-0.611585 -0.1196237,-0.921046 -0.014344,-0.309461 0.012499,-0.6247 0.1196237,-0.915382 0.1527288,-0.414428 0.4584225,-0.754281 0.78704,-1.049387 0.6752411,-0.606382 1.5102498,-1.079916 2.4154746,-1.144862 0.4526124,-0.03247 0.9156573,0.04013 1.3259619,0.233937 0.4103045,0.19381 0.7653762,0.511548 0.9808075,0.910925 0.062084,0.115094 0.1132611,0.237413 0.1941075,0.340198 0.040423,0.05139 0.088295,0.09757 0.1444049,0.131137 0.05611,0.03357 0.1208012,0.05415 0.1861817,0.05336 0.066088,-8.02e-4 0.1312678,-0.0236 0.1853438,-0.0616 0.054076,-0.038 0.097157,-0.0908 0.126479,-0.150032 0.058644,-0.118466 0.061304,-0.25878 0.03092,-0.387428 -0.060767,-0.257294 -0.2415365,-0.468436 -0.3427432,-0.71267 -0.083896,-0.202459 -0.1115244,-0.4268 -0.087603,-0.644643 0.023921,-0.217844 0.098643,-0.429059 0.2097885,-0.617936 0.2222901,-0.377756 0.58473,-0.659325 0.9825854,-0.843236 0.7957105,-0.367821 1.7052645,-0.362775 2.5680855,-0.517654 0.703839,-0.126341 1.393606,-0.363006 2.108601,-0.374508 0.357498,-0.0058 0.720031,0.04693 1.046548,0.192614 0.326516,0.145687 0.615364,0.389232 0.780054,0.706588 0.128162,0.246966 0.177096,0.52591 0.23436,0.798194 0.05726,0.272284 0.127798,0.550055 0.290333,0.775887 0.114663,0.159317 0.272012,0.286416 0.448541,0.372248 0.176529,0.08583 0.371812,0.130928 0.567925,0.139251 0.392227,0.01665 0.780253,-0.112651 1.119935,-0.309462 0.679364,-0.393623 1.173391,-1.039075 1.798802,-1.513771 0.642472,-0.487646 1.432987,-0.789716 2.239403,-0.805854 0.806417,-0.01614 1.623742,0.263217 2.220494,0.805854 0.458902,0.417287 0.787496,0.980231 1.311734,1.311734 0.500185,0.316293 1.13143,0.381718 1.712304,0.268529 0.580874,-0.113189 1.117675,-0.391854 1.609297,-0.721299 0.983245,-0.658889 1.847954,-1.546005 2.974724,-1.908351 0.510212,-0.164074 1.079999,-0.207652 1.574081,0 0.406209,0.170721 0.725876,0.493124 1.038911,0.803222 0.313034,0.310097 0.644332,0.624284 1.059864,0.770859 0.485635,0.171303 1.027504,0.08995 1.512293,-0.08373 0.484789,-0.17368 0.933188,-0.43493 1.407941,-0.634418 0.474752,-0.199488 0.996259,-0.337876 1.503105,-0.246809 0.253423,0.04553 0.498551,0.149721 0.695223,0.315903 0.196672,0.166183 0.342575,0.396115 0.390722,0.649054 0.05368,0.28201 -0.01442,0.57454 -0.123437,0.840106 -0.109021,0.265566 -0.258238,0.512697 -0.377452,0.773846 -0.119214,0.26115 -0.209283,0.544627 -0.18863,0.830956 0.01033,0.143165 0.04895,0.285238 0.120797,0.409499 0.07185,0.124261 0.177733,0.230084 0.306375,0.293755 0.188557,0.09333 0.41212,0.09095 0.617227,0.04411 0.205108,-0.04685 0.397995,-0.134923 0.594988,-0.208797 0.196993,-0.07387 0.404348,-0.134526 0.614396,-0.122563 0.105025,0.006 0.209657,0.03053 0.3034,0.07826 0.09374,0.04773 0.176277,0.119223 0.231111,0.208996 0.04654,0.07619 0.07236,0.16388 0.08277,0.252555 0.0104,0.08868 0.0058,0.178553 -0.0053,0.267141 -0.02225,0.177176 -0.07051,0.351259 -0.07745,0.529692 -0.0093,0.240265 0.05782,0.480334 0.173533,0.69111 0.115708,0.210775 0.278593,0.393311 0.462484,0.548226 0.367781,0.309831 0.813464,0.508643 1.240115,0.730515 0.426652,0.221872 0.851804,0.48122 1.132291,0.871843 0.140243,0.195311 0.240829,0.421794 0.272019,0.660209 0.03119,0.238416 -0.0097,0.488777 -0.13228,0.695646 -0.15679,0.264657 -0.432264,0.439344 -0.718994,0.550755 -0.286729,0.111411 -0.591198,0.168801 -0.885414,0.258595 -0.294216,0.08979 -0.587011,0.218064 -0.798482,0.44146 -0.105736,0.111699 -0.188961,0.246314 -0.231181,0.394212 -0.04222,0.147899 -0.04208,0.309249 0.0106,0.453753 0.05872,0.161066 0.180289,0.29505 0.325781,0.385726 0.145492,0.09068 0.313867,0.140195 0.483865,0.162345 0.339997,0.0443 0.683965,-0.01734 1.026782,-0.02338 0.636689,-0.01122 1.278676,0.17704 1.7962,0.548074 0.517524,0.371035 0.904945,0.925676 1.054598,1.544628 0.149653,0.618953 0.05541,1.29727 -0.275395,1.841388 -0.330808,0.544118 -0.898313,0.943323 -1.526016,1.0505 -0.395952,0.06761 -0.802812,0.02269 -1.197265,-0.05318 -0.394452,-0.07587 -0.783118,-0.182525 -1.180708,-0.239718 -0.39759,-0.05719 -0.810663,-0.0632 -1.193129,0.05956 -0.191232,0.06138 -0.373043,0.154938 -0.527985,0.282728 -0.154942,0.12779 -0.282508,0.290352 -0.360809,0.475301 -0.137755,0.32538 -0.11644,0.694498 -0.0695,1.044705 0.04694,0.350207 0.117222,0.703969 0.0695,1.05407 -0.052,0.381454 -0.242539,0.733236 -0.484828,1.032413 -0.24229,0.299177 -0.536021,0.551831 -0.826907,0.804015 -0.689062,0.597384 -1.400458,1.218356 -2.272788,1.484281 -0.436164,0.132962 -0.907449,0.170337 -1.350051,0.06069 -0.442601,-0.109646 -0.85353,-0.37392 -1.099404,-0.757931 -0.213685,-0.333737 -0.29378,-0.733928 -0.456765,-1.095146 -0.08149,-0.180608 -0.185646,-0.353812 -0.328852,-0.490751 -0.143206,-0.13694 -0.328527,-0.235754 -0.526118,-0.250531 -0.204082,-0.01526 -0.408926,0.06053 -0.570834,0.185708 -0.161907,0.125174 -0.283461,0.296835 -0.372627,0.481042 -0.178332,0.368412 -0.23181,0.783792 -0.368273,1.169678 -0.159093,0.449879 -0.434263,0.859474 -0.797108,1.169386 -0.362844,0.309913 -0.813128,0.518386 -1.285658,0.584848 -0.47253,0.06646 -0.965702,-0.01069 -1.391022,-0.227037 -0.425321,-0.216343 -0.779919,-0.57217 -0.986109,-1.002504 -0.145313,-0.30328 -0.216232,-0.635687 -0.314604,-0.957272 -0.09837,-0.321586 -0.231572,-0.644467 -0.472436,-0.879156 -0.209977,-0.204594 -0.491542,-0.328462 -0.781639,-0.370803 -0.290096,-0.04234 -0.588324,-0.0062 -0.868817,0.07909 -0.560985,0.170562 -1.042805,0.527621 -1.522341,0.865024 -0.479535,0.337404 -0.986656,0.668712 -1.563362,0.77457 -0.288352,0.05293 -0.590615,0.04635 -0.869327,-0.04458 -0.278713,-0.09093 -0.532354,-0.269624 -0.690839,-0.516264 -0.139964,-0.217817 -0.201195,-0.477941 -0.223228,-0.735912 -0.02203,-0.25797 -0.0072,-0.517468 -0.0077,-0.776378 -4.02e-4,-0.258909 -0.01669,-0.521352 -0.09818,-0.767103 -0.08149,-0.245751 -0.234553,-0.475607 -0.457984,-0.606423 -0.211884,-0.124056 -0.47294,-0.149628 -0.713124,-0.09867 -0.240185,0.05096 -0.46076,0.17387 -0.652227,0.327576 -0.382934,0.307411 -0.652633,0.731553 -0.995771,1.082831 -0.432323,0.442579 -0.986781,0.767892 -1.58831,0.91261 -0.601528,0.144718 -1.248456,0.105944 -1.822199,-0.12557 -0.477373,-0.192628 -0.893249,-0.509853 -1.287198,-0.841206 -0.393948,-0.331353 -0.774739,-0.682274 -1.209022,-0.958658 -0.434284,-0.276385 -0.933369,-0.477366 -1.44809,-0.47011 -0.257361,0.0036 -0.515378,0.0603 -0.744546,0.177473 -0.229168,0.117174 -0.428516,0.296023 -0.558082,0.51842 -0.09921,0.170286 -0.155948,0.361225 -0.225362,0.545673 -0.06941,0.184447 -0.155661,0.368814 -0.299331,0.503715 -0.09949,0.09341 -0.22297,0.159106 -0.352888,0.200871 -0.129919,0.04177 -0.266396,0.06029 -0.4027084,0.06679 -0.2726245,0.01299 -0.5460285,-0.02142 -0.8184859,-0.0053 -0.6616966,0.03913 -1.2755334,0.371986 -1.934824,0.440613 -0.3296454,0.03431 -0.6758696,-0.0021 -0.9642876,-0.16538 -0.144209,-0.08164 -0.2717681,-0.194448 -0.3634077,-0.332517 -0.09164,-0.138069 -0.1464337,-0.301704 -0.1479898,-0.46741 -0.00216,-0.229818 0.094999,-0.447472 0.1432084,-0.672187 0.024105,-0.112357 0.035974,-0.228949 0.01675,-0.342243 -0.019224,-0.113295 -0.071829,-0.223558 -0.159958,-0.297305 -0.086517,-0.0724 -0.2012116,-0.104899 -0.3139618,-0.108655 -0.1127503,-0.0038 -0.2246651,0.0192 -0.333954,0.04717 -0.1092888,0.02798 -0.2175634,0.06116 -0.3290254,0.07856 -0.1114619,0.01741 -0.2277205,0.01844 -0.3347928,-0.01708 C 4.2980391,45.957446 4.1928682,45.868185 4.1150372,45.762156 4.0372062,45.656128 3.9847181,45.533649 3.9417883,45.409324 3.8559287,45.160673 3.8013214,44.891615 3.6358336,44.687134 3.5293296,44.555535 3.3831109,44.460293 3.2275097,44.393586 3.0719085,44.32688 2.9062605,44.2871 2.7407272,44.2516 2.5751939,44.216101 2.4083993,44.184461 2.2471292,44.132949 2.0858591,44.081438 1.9290288,44.008995 1.7994061,43.900094 1.5713185,43.708469 1.4444809,43.415478 1.4085833,43.119749 1.3726857,42.82402 1.420288,42.524026 1.4936344,42.235297 1.5669809,41.946568 1.6660322,41.66475 1.7358716,41.375153 1.805711,41.085556 1.8460374,40.783811 1.7994061,40.489584 1.7220256,40.00134 1.4168167,39.584558 1.1258565,39.184918 0.98037643,38.985098 0.83573174,38.783601 0.71901221,38.565727 0.60229268,38.347853 0.51364522,38.111916 0.48767108,37.866116 0.44507792,37.463045 0.58092263,37.044359 0.85204679,36.743075 1.1231709,36.441791 1.5252638,36.2627 1.9305788,36.2627 c 0.4053151,0 0.8074079,0.179091 1.0785321,0.480375 0.2711241,0.301284 0.4069689,0.71997 0.3643757,1.123041"
       id="path3090"
       inkscape:path-effect="#path-effect3092-9"
       inkscape:original-d="m 3.3734866,37.866116 c -0.920263,-1.12278 -1.181497,-3.408637 -0.524693,-4.722244 0.193442,-0.386885 -0.294113,-1.542316 0,-1.836428 0.508862,-0.508862 0.67252,-0.934867 0.78704,-1.049387 0.270994,-0.270994 4.326177,-0.198034 4.722244,0 0.22123,0.110615 0.277351,0.524693 0.5246941,0.524693 0.05639,0 -0.07452,-1.237219 0,-1.311734 1.2276033,-1.227603 2.6594843,-1.610097 3.6728563,-2.623469 0.6342,-0.6342 3.680428,0.26992 3.935203,0.524694 0.405355,0.405356 0.214558,1.263947 0.524693,1.574081 0.41691,0.41691 2.855583,-1.311734 3.935203,-1.311734 0.710902,0 4.0075,-0.452397 4.459897,0 0.109122,0.109122 0.396416,2.227053 1.311734,1.311734 1.664881,-1.664881 2.818583,-2.361121 6.296325,-2.361121 0.24879,0 1.415652,-0.158429 1.574081,0 0.785618,0.785618 0.411958,1.574081 2.098775,1.574081 0.878241,0 4.950401,-0.558883 5.509284,0 0.471636,0.471635 -0.327969,3.08254 -0.262347,3.148162 0.393521,0.39352 1.967602,-0.39352 2.361122,0 0.174898,0.174898 -0.174898,0.87449 0,1.049388 1.443915,1.443914 1.832943,2.88233 3.148162,4.197549 1.04674,1.04674 -2.877397,1.844846 -2.623468,2.098775 0.39352,0.393521 1.442908,0.131174 1.836428,0.524694 0.2514,0.2514 2.269247,3.764731 1.049387,4.98459 -0.830765,0.830766 -3.629131,-0.306071 -4.459896,0.524694 -0.349796,0.349796 0.349795,1.748979 0,2.098775 -0.524694,0.524694 -0.787041,1.311734 -1.311735,1.836428 -0.229533,0.229533 -4.070472,1.438812 -4.722243,0.787041 -0.524694,-0.524694 -0.787041,-1.311735 -1.311735,-1.836428 -0.288994,-0.288995 -0.885488,1.410182 -1.311734,1.836428 -0.207663,0.207663 -3.790755,1.193835 -4.459897,0.524693 -0.126969,-0.126969 -0.573673,-1.765305 -0.78704,-1.836428 -0.558697,-0.186232 -5.344939,1.738427 -6.296325,0.787041 -0.612143,-0.612143 -0.174898,-2.273673 -0.78704,-2.885816 -0.878793,-0.878792 -2.208156,1.158769 -2.361122,1.311735 -0.660133,0.660132 -2.388702,0.276137 -3.410509,0.78704 -2.511136,1.255568 -4.621167,-2.199851 -5.246938,-1.574081 -0.262347,0.262347 -0.262347,0.787041 -0.524693,1.049388 -0.306072,0.306071 -1.2680103,-0.04372 -1.5740823,0.262347 -0.5260231,0.526023 -3.2285311,-0.160739 -3.4105091,-0.524694 -0.137619,-0.275239 0.209395,-1.102339 0,-1.311735 -0.209395,-0.209395 -1.036495,0.13762 -1.311734,0 -0.621765,-0.310882 -0.505123,-1.029816 -0.787041,-1.311734 -0.392235,-0.392235 -1.483612,-0.434224 -1.8364275,-0.78704 -0.568419,-0.568419 0.5684175,-2.842091 0,-3.41051 -0.163911,-0.16391 -2.10268602,-1.832517 -1.31173502,-2.623468 0.489141,-0.489141 2.18645852,-0.139872 2.88581552,0 z"
       inkscape:connector-curvature="0" />
    <path
       sodipodi:type="arc"
       style="fill:#ffffff;stroke:#000000;stroke-width:0.68970811;stroke-linecap:butt;stroke-linejoin:bevel;stroke-miterlimit:100;stroke-opacity:1;stroke-dasharray:none;stroke-dashoffset:0"
       id="path3941"
       sodipodi:cx="39.791306"
       sodipodi:cy="19.292753"
       sodipodi:rx="6.2144928"
       sodipodi:ry="9.0898542"
       d="m 45.999531,18.884616 a 6.2144928,9.0898542 0 1 1 -5.6e-4,-0.01785"
       sodipodi:start="6.2382699"
       sodipodi:end="12.51949"
       sodipodi:open="true"
       transform="matrix(1.4105794,-0.68724116,0.18684046,1.0762056,-15.503167,36.031157)" />
    <path
       style="fill:#999999;stroke:#000000;stroke-width:1px;stroke-linecap:butt;stroke-linejoin:miter;stroke-opacity:1"
       d="m 40.042295,21.118571 c -0.94775,-0.240283 -1.89245,-0.492598 -2.833795,-0.756865 -1.816726,-0.510015 -3.631741,-1.066799 -5.505485,-1.289713 -1.873744,-0.222914 -3.836088,-0.0929 -5.538929,0.720086 -0.797601,0.380797 -1.548816,0.932419 -1.966683,1.711239 -0.208934,0.38941 -0.328436,0.830464 -0.315682,1.2722 0.01275,0.441736 0.161774,0.882912 0.441962,1.224655 0.248315,0.302868 0.592915,0.520802 0.965832,0.640477 0.372918,0.119675 0.773136,0.143621 1.161832,0.09561 0.777392,-0.09602 1.492574,-0.47001 2.15225,-0.892367 1.556591,-0.996606 2.928872,-2.304751 4.624912,-3.039358 2.160073,-0.935594 4.748927,-0.816278 6.813786,0.314036"
       id="path3963"
       inkscape:path-effect="#path-effect3965"
       inkscape:original-d="M 40.042295,21.118571 C 38.937563,20.592943 38.096241,20.780555 37.2085,20.361706 33.283206,18.50969 31.236444,17.971783 26.164086,19.792079 c -1.959867,0.70333 -1.984107,4.259664 -1.840403,4.208094 0.483383,-0.17347 3.7341,1.000557 4.279914,-0.15628 0.167916,-0.355893 2.72593,-3.935329 4.624912,-3.039358 2.098873,0.99028 4.215073,1.878666 6.813786,0.314036 z"
       inkscape:connector-curvature="0" />
    <path
       style="fill:#999999;stroke:#000000;stroke-width:0.99469072px;stroke-linecap:butt;stroke-linejoin:miter;stroke-opacity:1"
       d="m 52.645838,23.923156 c 0.797545,0.39505 1.583459,0.813582 2.356379,1.254872 3.11062,1.775972 6.083737,4.001397 7.943769,7.062493 0.268537,0.441937 0.513288,0.901098 0.684121,1.389192 0.170833,0.488095 0.26645,1.007354 0.231547,1.523302 -0.0349,0.515947 -0.205352,1.028782 -0.525119,1.435192 -0.319767,0.406409 -0.794515,0.698565 -1.308506,0.755422 -0.382866,0.04235 -0.775007,-0.04532 -1.117103,-0.222378 C 60.568831,36.944189 60.275521,36.680469 60.04,36.375658 59.568959,35.766035 59.332618,35.010253 59.146083,34.262774 58.647292,32.264023 58.429132,30.166558 57.52722,28.314437 56.544917,26.297229 54.755356,24.687343 52.645838,23.923156"
       id="path3963-8"
       inkscape:path-effect="#path-effect3965-1"
       inkscape:original-d="m 52.645838,23.923156 c 1.038732,0.27882 1.523517,1.027591 2.356379,1.254872 3.682643,1.004952 5.380021,1.919293 7.943769,7.062493 0.990583,1.987239 -0.845324,5.248819 -0.917957,5.103108 -0.24432,-0.490134 -3.106691,-1.650598 -2.881946,-3.080855 0.06914,-0.440009 0.16273,-5.462161 -1.618863,-5.948337 -1.969126,-0.537354 -3.897166,-1.179575 -4.881382,-4.391281 z"
       inkscape:connector-curvature="0" />
    <path
       sodipodi:type="arc"
       style="fill:#ffffff;fill-opacity:1;stroke:#000000;stroke-width:0.58499998;stroke-linecap:butt;stroke-linejoin:bevel;stroke-miterlimit:100;stroke-opacity:1;stroke-dasharray:none;stroke-dashoffset:0"
       id="path4000"
       sodipodi:cx="-16.417391"
       sodipodi:cy="28.104347"
       sodipodi:rx="2.6898551"
       sodipodi:ry="2.6898551"
       d="m -13.730249,27.983572 a 2.6898551,2.6898551 0 1 1 -2.42e-4,-0.0053"
       sodipodi:start="6.2382699"
       sodipodi:end="12.51949"
       sodipodi:open="true"
       transform="matrix(0.90840646,0,0,0.87392435,56.825119,1.3621985)" />
    <path
       sodipodi:type="arc"
       style="fill:#ffffff;fill-opacity:1;stroke:#000000;stroke-width:0.58499998;stroke-linecap:butt;stroke-linejoin:bevel;stroke-miterlimit:100;stroke-opacity:1;stroke-dasharray:none;stroke-dashoffset:0"
       id="path4000-7"
       sodipodi:cx="-16.417391"
       sodipodi:cy="28.104347"
       sodipodi:rx="2.6898551"
       sodipodi:ry="2.6898551"
       d="m -13.730249,27.983572 a 2.6898551,2.6898551 0 1 1 -2.42e-4,-0.0053"
       sodipodi:start="6.2382699"
       sodipodi:end="12.51949"
       sodipodi:open="true"
       transform="matrix(0.90840646,0,0,0.87392435,63.688886,4.2375613)" />
    <path
       sodipodi:type="arc"
       style="fill:#000000;fill-opacity:1;stroke:#000000;stroke-width:0.58499998;stroke-linecap:butt;stroke-linejoin:bevel;stroke-miterlimit:100;stroke-opacity:1;stroke-dasharray:none;stroke-dashoffset:0"
       id="path4022"
       sodipodi:cx="3.9884057"
       sodipodi:cy="20.915941"
       sodipodi:rx="1.6695652"
       sodipodi:ry="1.8086957"
       d="m 5.6579709,20.915941 a 1.6695652,1.8086957 0 1 1 -3.3391304,0 1.6695652,1.8086957 0 1 1 3.3391304,0 z"
       transform="matrix(0.53649579,0,0,0.53649579,39.511541,15.351233)" />
    <path
       sodipodi:type="arc"
       style="fill:#000000;fill-opacity:1;stroke:#000000;stroke-width:0.58499998;stroke-linecap:butt;stroke-linejoin:bevel;stroke-miterlimit:100;stroke-opacity:1;stroke-dasharray:none;stroke-dashoffset:0"
       id="path4022-3"
       sodipodi:cx="3.9884057"
       sodipodi:cy="20.915941"
       sodipodi:rx="1.6695652"
       sodipodi:ry="1.8086957"
       d="m 5.6579709,20.915941 a 1.6695652,1.8086957 0 1 1 -3.3391304,0 1.6695652,1.8086957 0 1 1 3.3391304,0 z"
       transform="matrix(0.53649579,0,0,0.53649579,47.377489,17.391814)" />
    <path
       style="fill:none;stroke:#000000;stroke-width:0.78437734px;stroke-linecap:butt;stroke-linejoin:miter;stroke-opacity:1"
       d="m 41.802355,32.667296 -0.703103,1.800936"
       id="path4042"
       inkscape:path-effect="#path-effect4044"
       inkscape:original-d="m 41.802355,32.667296 c -0.221106,0.736942 -0.561908,1.476246 -0.703103,1.800936"
       inkscape:connector-curvature="0" />
    <path
       style="fill:none;stroke:#000000;stroke-width:0.81567371px;stroke-linecap:butt;stroke-linejoin:miter;stroke-opacity:1"
       d="m 43.379395,33.08208 -0.577846,2.020755"
       id="path4046"
       inkscape:path-effect="#path-effect4048"
       inkscape:original-d="m 43.379395,33.08208 c -0.121715,0.889996 -0.225159,1.585441 -0.577846,2.020755"
       inkscape:connector-curvature="0" />
  </g>
  <g
     inkscape:groupmode="layer"
     id="layer2"
     inkscape:label="Layer" />
</svg>
